<?xml version="1.0" encoding="utf-8"?>
<!-- Generator: Adobe Illustrator 25.0.1, SVG Export Plug-In . SVG Version: 6.00 Build 0)  -->
<svg version="1.1" xmlns="http://www.w3.org/2000/svg" xmlns:xlink="http://www.w3.org/1999/xlink" x="0px" y="0px"
	 viewBox="0 0 508.3 508.4" style="enable-background:new 0 0 508.3 508.4;" xml:space="preserve">
<style type="text/css">
	.st0{fill-rule:evenodd;clip-rule:evenodd;fill:#E74C3C;}
	.st1{fill:#FFFFFF;}
</style>
<g id="Layer_1">
	<path class="st0" d="M483.2,27.9c11.5,15.1,16.6,40.2,19.1,70.7c3.4,45.5,4.7,100.1,6,156.5c-1.7,57.5-2.4,115.4-6,156.5
		c-2.9,31.5-9,52.7-19.2,65.5c-13,12.8-37.9,23.6-73.5,26.1c-43.2,3.7-96.6,3.6-155.5,5.1c-65.4-1.1-109.8-0.6-156.4-5.1
		c-36.3-2.5-60.1-13.2-74.7-26.1c-10.8-14.5-14-30-17-66.2c-3.8-41.9-4.6-98.6-6-155.5c2.1-56.7,2.3-113.8,6-156.5
		c2.5-33.7,6.5-56.3,16.8-70.7C37.2,16,61.6,9.9,98.2,6.9c50-5.8,102.1-7,155.9-6.9c55.4,0.1,108.6,1.7,156,6.3
		C442.1,8.9,468.5,14.4,483.2,27.9L483.2,27.9z"/>
	<g>
		<polygon class="st1" points="208.6,176.6 208.6,261 299.7,261 299.7,176.6 253.8,147.2 		"/>
		<path class="st1" d="M253.8,36.5c-94.9,0-172.5,77.6-172.5,172.5c0,78.3,54.2,147.6,129.6,167.2l34.7,89.6c1.5,3.8,4.5,6,9,6l0,0
			c3.8,0,7.5-2.3,9-6L296,377C372.1,358.1,427,288.8,427,209.7C426.3,114.1,349.5,36.5,253.8,36.5z M356.2,213.5l-30.9-20.3v93.4
			H183v-93.4l-30.9,20.3l-14.3-21.1L247,121.6c4.5-3,9.8-3,13.6,0l109.2,70.8L356.2,213.5z"/>
	</g>
</g>
<g id="Слой_2">
</g>
</svg>
