<?xml version="1.0" encoding="utf-8"?>
<!-- Generator: Adobe Illustrator 25.0.1, SVG Export Plug-In . SVG Version: 6.00 Build 0)  -->
<svg version="1.1" xmlns="http://www.w3.org/2000/svg" xmlns:xlink="http://www.w3.org/1999/xlink" x="0px" y="0px"
	 viewBox="0 0 508.3 508.4" style="enable-background:new 0 0 508.3 508.4;" xml:space="preserve">
<style type="text/css">
	.st0{fill-rule:evenodd;clip-rule:evenodd;fill:#24292E;}
	.st1{fill:#FFFFFF;}
</style>
<g id="Layer_1">
	<path class="st0" d="M483.2,27.9c11.5,15.1,16.6,40.2,19.1,70.7c3.4,45.5,4.7,100.1,6,156.5c-1.7,57.5-2.4,115.4-6,156.5
		c-2.9,31.5-9,52.7-19.2,65.5c-13,12.8-37.9,23.6-73.5,26.1c-43.2,3.7-96.6,3.6-155.5,5.1c-65.4-1.1-109.8-0.6-156.4-5.1
		c-36.3-2.5-60.1-13.2-74.7-26.1c-10.8-14.5-14-30-17-66.2c-3.8-41.9-4.6-98.6-6-155.5c2.1-56.7,2.3-113.8,6-156.5
		c2.5-33.7,6.5-56.3,16.8-70.7C37.2,16,61.6,9.9,98.2,6.9c50-5.8,102.1-7,155.9-6.9c55.4,0.1,108.6,1.7,156,6.3
		C442.1,8.9,468.5,14.4,483.2,27.9L483.2,27.9z"/>
	<path class="st1" d="M254.1,43.1c-119.6,0-216.4,97-216.4,216.5c0,93.1,59.6,175.8,148,205.3c10.8,2,14.8-4.7,14.8-10.4
		c0-5.2-0.2-22.2-0.3-40.3c-60.2,13.1-73-25.5-73-25.5c-9.9-25-24-31.7-24-31.7c-19.6-13.4,1.4-13.2,1.4-13.2
		c21.7,1.5,33.2,22.3,33.2,22.3c19.3,33.1,50.6,23.5,63,18c1.9-14,7.6-23.5,13.7-28.9c-48.1-5.5-98.6-24-98.6-106.9
		c-0.3-21.5,7.7-42.3,22.3-58.1c-2.3-5.5-9.7-27.4,2.1-57.3c0,0,18.2-5.8,59.5,22.2c35.5-9.7,72.9-9.7,108.3,0
		c41.5-28.1,59.6-22.3,59.6-22.3c11.8,29.8,4.3,51.8,2.1,57.3c14.6,15.8,22.6,36.6,22.3,58.1c0,83.1-50.6,101.4-98.8,106.8
		c7.8,6.7,14.7,19.9,14.7,40.1c0,28.9-0.2,52.3-0.2,59.4c0,5.8,3.9,12.5,14.9,10.4C436,427.1,497.3,304.5,459.5,191
		C430,102.7,347.3,43,254.1,43.1L254.1,43.1z"/>
</g>
<g id="Слой_2">
</g>
</svg>
