<?xml version="1.0" encoding="utf-8"?>
<!-- Generator: Adobe Illustrator 25.0.1, SVG Export Plug-In . SVG Version: 6.00 Build 0)  -->
<svg version="1.1" xmlns="http://www.w3.org/2000/svg" xmlns:xlink="http://www.w3.org/1999/xlink" x="0px" y="0px"
	 viewBox="0 0 508.3 508.4" style="enable-background:new 0 0 508.3 508.4;" xml:space="preserve">
<style type="text/css">
	.st0{fill-rule:evenodd;clip-rule:evenodd;fill:url(#SVGID_1_);}
	.st1{fill:#FFFFFF;}
</style>
<g id="Layer_1">
	<linearGradient id="SVGID_1_" gradientUnits="userSpaceOnUse" x1="3.999507e-02" y1="254.1753" x2="508.32" y2="254.1753">
		<stop  offset="0" style="stop-color:#FEC053"/>
		<stop  offset="0.3273" style="stop-color:#F2203E"/>
		<stop  offset="0.6485" style="stop-color:#B729A8"/>
		<stop  offset="1" style="stop-color:#5342D6"/>
	</linearGradient>
	<path class="st0" d="M483.2,27.9c11.5,15.1,16.6,40.2,19.1,70.7c3.4,45.5,4.7,100.1,6,156.5c-1.7,57.5-2.4,115.4-6,156.5
		c-2.9,31.5-9,52.7-19.2,65.5c-13,12.8-37.9,23.6-73.5,26.1c-43.2,3.7-96.6,3.6-155.5,5.1c-65.4-1.1-109.8-0.6-156.4-5.1
		c-36.3-2.5-60.1-13.2-74.7-26.1c-10.8-14.5-14-30-17-66.2c-3.8-41.9-4.6-98.6-6-155.5c2.1-56.7,2.3-113.8,6-156.5
		c2.5-33.7,6.5-56.3,16.8-70.7C37.2,16,61.6,9.9,98.2,6.9c50-5.8,102.1-7,155.9-6.9c55.4,0.1,108.6,1.7,156,6.3
		C442.1,8.9,468.5,14.4,483.2,27.9L483.2,27.9z"/>
	<g>
		<path class="st1" d="M254.2,144.2c-59.7,0-109.2,48.6-109.2,109.2s48.6,109.2,109.2,109.2S363.3,313,363.3,253.3
			S313.9,144.2,254.2,144.2z M254.2,323.3c-38.4,0-69.9-31.6-69.9-69.9s31.6-69.9,69.9-69.9s69.9,31.6,69.9,69.9
			S292.5,323.3,254.2,323.3z"/>
		<circle class="st1" cx="367.6" cy="141.6" r="24.7"/>
		<path class="st1" d="M431.6,77.6c-22.2-23-53.7-35-89.5-35H166.3c-74.2,0-123.7,49.5-123.7,123.7v174.8
			c0,36.7,11.9,68.2,35.8,91.3c23,22.2,53.7,33.3,88.7,33.3h174c36.7,0,67.4-11.9,89.5-33.3c23-22.2,35-53.7,35-90.4V166.3
			C465.7,130.5,453.7,99.8,431.6,77.6z M428.1,342c0,26.4-9.4,47.8-24.7,62.3s-36.7,22.2-62.3,22.2h-174c-25.6,0-46.9-7.7-62.3-22.2
			c-15.4-15.4-23-36.7-23-63.1V166.3c0-25.6,7.7-46.9,23-62.3c14.5-14.5,36.7-22.2,62.3-22.2h175.7c25.6,0,46.9,7.7,62.3,23
			c14.5,15.4,23,36.7,23,61.4V342L428.1,342z"/>
	</g>
</g>
<g id="Слой_2">
</g>
</svg>
