<?xml version="1.0" encoding="utf-8"?>
<!-- Generator: Adobe Illustrator 25.0.1, SVG Export Plug-In . SVG Version: 6.00 Build 0)  -->
<svg version="1.1" xmlns="http://www.w3.org/2000/svg" xmlns:xlink="http://www.w3.org/1999/xlink" x="0px" y="0px"
	 viewBox="0 0 508.3 508.4" style="enable-background:new 0 0 508.3 508.4;" xml:space="preserve">
<style type="text/css">
	.st0{fill-rule:evenodd;clip-rule:evenodd;fill:#E74C3C;}
	.st1{fill:#FFFFFF;}
</style>
<g id="Layer_1">
	<path class="st0" d="M483.2,27.9c11.5,15.1,16.6,40.2,19.1,70.7c3.4,45.5,4.7,100.1,6,156.5c-1.7,57.5-2.4,115.4-6,156.5
		c-2.9,31.5-9,52.7-19.2,65.5c-13,12.8-37.9,23.6-73.5,26.1c-43.2,3.7-96.6,3.6-155.5,5.1c-65.4-1.1-109.8-0.6-156.4-5.1
		c-36.3-2.5-60.1-13.2-74.7-26.1c-10.8-14.5-14-30-17-66.2c-3.8-41.9-4.6-98.6-6-155.5c2.1-56.7,2.3-113.8,6-156.5
		c2.5-33.7,6.5-56.3,16.8-70.7C37.2,16,61.6,9.9,98.2,6.9c50-5.8,102.1-7,155.9-6.9c55.4,0.1,108.6,1.7,156,6.3
		C442.1,8.9,468.5,14.4,483.2,27.9L483.2,27.9z"/>
	<path class="st1" d="M220.1,465.6c47.6,0,93-18.4,126.5-51.9c66-66,69.2-169.7,10.8-240l75.7-75.7v37.8c0,8.6,7.6,16.2,16.2,16.2
		s16.2-7.6,16.2-16.2V57.9c0-2.2,0-4.3-1.1-5.4l0,0c-2.2-4.3-4.3-7.6-8.6-8.6l0,0c-2.2-1.1-4.3-1.1-5.4-1.1h-76.8
		c-8.6,0-16.2,7.6-16.2,16.2s7.6,16.2,16.2,16.2h37.8l-75.7,75.7c-32.4-27-72.4-41.1-114.6-41.1c-47.6,0-93,18.4-126.5,51.9
		c-69.2,69.2-69.2,182.7,0,251.9C127.1,447.2,172.5,465.6,220.1,465.6z M116.3,184.4c27-27,63.8-43.2,102.7-43.2
		s75.7,15.1,102.7,43.2c57.3,57.3,57.3,149.2,0,206.5c-27,27-63.8,43.2-102.7,43.2s-75.7-15.1-102.7-43.2
		C60.1,333.6,60.1,240.7,116.3,184.4z"/>
</g>
<g id="Слой_2">
</g>
</svg>
