<?xml version="1.0" encoding="utf-8"?>
<!-- Generator: Adobe Illustrator 25.0.1, SVG Export Plug-In . SVG Version: 6.00 Build 0)  -->
<svg version="1.1" id="Слой_1" xmlns="http://www.w3.org/2000/svg" xmlns:xlink="http://www.w3.org/1999/xlink" x="0px" y="0px"
	 viewBox="0 0 508.3 508.4" style="enable-background:new 0 0 508.3 508.4;" xml:space="preserve">
<style type="text/css">
	.st0{fill-rule:evenodd;clip-rule:evenodd;fill:#F5F5F5;}
	.st1{fill:#2299F8;}
	.st2{fill:#FFC107;}
	.st3{fill:#5ACF5F;}
	.st4{fill:#F84437;}
</style>
<path class="st0" d="M483.2,27.9c11.5,15.1,16.6,40.2,19.1,70.7c3.4,45.5,4.7,100.1,6,156.5c-1.7,57.5-2.4,115.4-6,156.5
	c-2.9,31.5-9,52.7-19.2,65.5c-13,12.8-37.9,23.6-73.5,26.1c-43.2,3.7-96.6,3.6-155.5,5.1c-65.4-1.1-109.8-0.6-156.4-5.1
	C61.4,500.7,37.6,490,23,477.1c-10.8-14.5-14-30-17-66.2C2.2,369,1.4,312.3,0,255.4c2.1-56.7,2.3-113.8,6-156.5
	c2.5-33.7,6.5-56.3,16.8-70.7C37.2,16,61.6,9.9,98.2,6.9c50-5.8,102.1-7,155.9-6.9c55.4,0.1,108.6,1.7,156,6.3
	C442.1,8.9,468.5,14.4,483.2,27.9L483.2,27.9z"/>
<g id="_x31_03-GooglePlay_x2C__play_x2C__google_play_x2C__apps">
	<g>
		<g>
			<g>
				<path class="st1" d="M278.3,244.7L47.5,476.1c-11-10.5-17-24.8-17-40.4V72.7c0-15.8,6.3-30.2,17.6-41L278.3,244.7z"/>
				<g>
					<path class="st2" d="M477.8,254.2c0,20.9-11.3,39.5-30.1,50l-65.6,36.5l-81.4-75.4l-22.4-20.6l86.2-86.4l83.2,46.1
						C466.5,214.8,477.8,233.3,477.8,254.2L477.8,254.2z"/>
					<path class="st3" d="M278.3,244.7L48.1,31.7c3-3,6.9-5.7,10.7-8.1c18.8-11.4,41.5-11.7,60.8-0.9l244.9,135.5L278.3,244.7z"/>
				</g>
				<path class="st4" d="M382.1,340.7l-262.5,145c-9.2,5.4-19.7,7.8-29.8,7.8c-10.7,0-21.5-2.7-31-8.7c-4.2-2.4-8.1-5.4-11.3-8.7
					l230.9-231.5l22.4,20.6L382.1,340.7z"/>
			</g>
		</g>
	</g>
</g>
</svg>
