<?xml version="1.0" encoding="utf-8"?>
<!-- Generator: Adobe Illustrator 25.0.1, SVG Export Plug-In . SVG Version: 6.00 Build 0)  -->
<svg version="1.1" xmlns="http://www.w3.org/2000/svg" xmlns:xlink="http://www.w3.org/1999/xlink" x="0px" y="0px"
	 viewBox="0 0 508.3 508.4" style="enable-background:new 0 0 508.3 508.4;" xml:space="preserve">
<style type="text/css">
	.st0{fill-rule:evenodd;clip-rule:evenodd;fill:#E74C3C;}
	.st1{fill:#FFFFFF;}
	.st2{font-family:'Roboto-Black';}
	.st3{font-size:400px;}
</style>
<g id="Layer_1">
	<path class="st0" d="M483.2,27.9c11.5,15.1,16.6,40.2,19.1,70.7c3.4,45.5,4.7,100.1,6,156.5c-1.7,57.5-2.4,115.4-6,156.5
		c-2.9,31.5-9,52.7-19.2,65.5c-13,12.8-37.9,23.6-73.5,26.1c-43.2,3.7-96.6,3.6-155.5,5.1c-65.4-1.1-109.8-0.6-156.4-5.1
		c-36.3-2.5-60.1-13.2-74.7-26.1c-10.8-14.5-14-30-17-66.2c-3.8-41.9-4.6-98.6-6-155.5c2.1-56.7,2.3-113.8,6-156.5
		c2.5-33.7,6.5-56.3,16.8-70.7C37.2,16,61.6,9.9,98.2,6.9c50-5.8,102.1-7,155.9-6.9c55.4,0.1,108.6,1.7,156,6.3
		C442.1,8.9,468.5,14.4,483.2,27.9L483.2,27.9z"/>
	<text transform="matrix(1 0 0 1 1.8212 398)" class="st1 st2 st3">EN</text>
</g>
<g id="Слой_2">
</g>
</svg>
