<?xml version="1.0" ?><svg data-name="Layer 1" id="Layer_1" viewBox="0 0 508.33 508.36" xmlns="http://www.w3.org/2000/svg"><defs><style>.cls-1{fill:#675ca8;fill-rule:evenodd;}.cls-2{fill:#fff;}</style></defs><title/><path class="cls-1" d="M485,29.72c11.45,15.13,16.61,40.21,19.15,70.7,3.36,45.5,4.71,100.1,6,156.52-1.67,57.47-2.35,115.43-6,156.52-2.88,31.54-9,52.66-19.22,65.47-13,12.79-37.94,23.59-73.5,26.15-43.25,3.69-96.61,3.65-155.48,5.1-65.44-1.12-109.82-.64-156.38-5.08-36.32-2.52-60.08-13.19-74.7-26.07-10.83-14.54-14-30-17-66.24-3.75-41.85-4.58-98.56-6-155.54C4,200.57,4.13,143.44,7.9,100.74,10.43,67.05,14.42,44.4,24.65,30,39,17.77,63.48,11.69,100,8.69c50-5.85,102.06-7,155.88-6.87,55.39.09,108.56,1.67,156,6.34,32,2.56,58.48,8.07,73.07,21.56Z" transform="translate(-1.83 -1.82)"/><path class="cls-2" d="M249.5,99a150,150,0,1,0,150,150A150,150,0,0,0,249.5,99Zm-1.79,64.37a5,5,0,0,1,2.69-3.15,8.26,8.26,0,0,1,3.18-.62s1.33-.09,2.5-.05c39.66,1.06,73.91,29.22,78.85,71.87A111.57,111.57,0,0,1,336,244.58c0,1.39.06,3.91-1.65,5.54a5.13,5.13,0,0,1-2.27,1.22,6.13,6.13,0,0,1-3.24-1.76,6.65,6.65,0,0,1-1.52-4.23,131.28,131.28,0,0,0-3.29-23c-6.59-28-32-50.08-60.63-53.28-3.33-.37-6.66-.74-10-.89-2.27-.1-4.52-.52-5.41-2A3.86,3.86,0,0,1,247.71,163.37Zm15.58,26.36a17.56,17.56,0,0,1-3.69-.55c-1.59-.42-2.83-.76-3.77-1.85a5.23,5.23,0,0,1-1.17-3.25,5.08,5.08,0,0,1,1.62-2.63,5.76,5.76,0,0,1,4-1c23.38,1.17,37.22,14.7,37.22,14.7a60.27,60.27,0,0,1,10.59,14.34A63.7,63.7,0,0,1,315.36,234a10.12,10.12,0,0,1-.79,5.12,5.38,5.38,0,0,1-1.74,2.38,5,5,0,0,1-3,.9,5.45,5.45,0,0,1-2-1.3,4.68,4.68,0,0,1-1.29-2.25c-1.23-10.73-2.91-21.21-9.51-30.27C288.64,197.11,276.78,192,263.29,189.73Zm30.57,40.77c-.23,3.11-1.49,4.26-1.81,4.53a5,5,0,0,1-2.69,1.09,5.28,5.28,0,0,1-2.73-1.36,5.93,5.93,0,0,1-1.54-3.64c-.31-2.69-2.24-11.3-6.64-15.27-2.75-2.48-6.56-3.79-12.12-4.6-2.23-.32-4.4-.78-5.18-2.26a3.74,3.74,0,0,1-.07-2.81c.91-2.95,4.49-3.8,4.77-3.86,2.37.33,17.54,2.67,24.48,14A25.11,25.11,0,0,1,293.86,230.5Zm41.78,83.55c-5.69,6.93-11.19,14.23-17.93,20-5.79,5-13.35,5.58-20.88,2.5C235,311.33,190.59,268.39,165,206.41c-.64-1.55-1.16-3.16-1.71-4.75-4.79-13.91-3.35-19.31,8.07-28.67a130.83,130.83,0,0,1,11.77-8.46c6.81-4.42,14.29-4.37,19.44,1.83a288.08,288.08,0,0,1,23.73,32.49c5.24,8.5,3.37,13.32-4.32,19.72-1.78,1.48-3.68,2.81-5.46,4.28-4.45,3.7-6.33,8.1-4.37,14,8.6,25.63,26.56,41.84,51.58,50.45,2.91,1,7.46-1.25,10.64-3.05,2.38-1.35,3.77-4.42,5.61-6.72,5-6.22,13-8.85,19.65-4.64,11.86,7.53,23.23,15.89,34.38,24.45,2.39,1.84,3,6,4.26,8.86C337.23,309.45,337.09,312.29,335.64,314.06Z" transform="translate(-1.83 -1.82)"/></svg>