<?xml version="1.0" encoding="utf-8"?>
<!-- Generator: Adobe Illustrator 25.0.1, SVG Export Plug-In . SVG Version: 6.00 Build 0)  -->
<svg version="1.1" xmlns="http://www.w3.org/2000/svg" xmlns:xlink="http://www.w3.org/1999/xlink" x="0px" y="0px"
	 viewBox="0 0 508.3 508.4" style="enable-background:new 0 0 508.3 508.4;" xml:space="preserve">
<style type="text/css">
	.st0{fill-rule:evenodd;clip-rule:evenodd;fill:#E74C3C;}
	.st1{fill:#FFFFFF;}
</style>
<g id="Layer_1">
	<path class="st0" d="M483.2,27.9c11.5,15.1,16.6,40.2,19.1,70.7c3.4,45.5,4.7,100.1,6,156.5c-1.7,57.5-2.4,115.4-6,156.5
		c-2.9,31.5-9,52.7-19.2,65.5c-13,12.8-37.9,23.6-73.5,26.1c-43.2,3.7-96.6,3.6-155.5,5.1c-65.4-1.1-109.8-0.6-156.4-5.1
		c-36.3-2.5-60.1-13.2-74.7-26.1c-10.8-14.5-14-30-17-66.2c-3.8-41.9-4.6-98.6-6-155.5c2.1-56.7,2.3-113.8,6-156.5
		c2.5-33.7,6.5-56.3,16.8-70.7C37.2,16,61.6,9.9,98.2,6.9c50-5.8,102.1-7,155.9-6.9c55.4,0.1,108.6,1.7,156,6.3
		C442.1,8.9,468.5,14.4,483.2,27.9L483.2,27.9z"/>
	<g id="C_-_78_x2C__Skills_x2C__Abilities_x2C__employee_x2C__human_x2C__man_x2C__people">
		<g>
			<path class="st1" d="M431.4,177.8c-8,0-14.5,6.5-14.5,14.4c0,7.9,6.5,14.4,14.5,14.4c8,0,14.5-6.5,14.5-14.4
				C445.9,184.3,439.4,177.8,431.4,177.8z"/>
			<path class="st1" d="M431.4,435.2c-8,0-14.5,6.5-14.5,14.4s6.5,14.4,14.5,14.4c8,0,14.5-6.5,14.5-14.4S439.4,435.2,431.4,435.2z"
				/>
			<path class="st1" d="M212.6,196.9h-108c-23.2,0-42.1,18.8-42.1,41.9v53.6h29v-33.5c0-2.6,2.1-4.7,4.7-4.7c2.6,0,4.7,2.1,4.7,4.7
				v33.5H216v-33.5c0-2.6,2.1-4.7,4.7-4.7c2.6,0,4.7,2.1,4.7,4.7v33.5h28.9v-54.1C254.3,215.5,235.6,196.9,212.6,196.9z"/>
			<path class="st1" d="M431.4,311.3c-8,0-14.5,6.5-14.5,14.4c0,7.9,6.5,14.4,14.5,14.4c8,0,14.5-6.5,14.5-14.4
				C445.9,317.8,439.4,311.3,431.4,311.3z"/>
			<path class="st1" d="M431.4,82.6c8,0,14.5-6.5,14.5-14.4s-6.5-14.4-14.5-14.4c-8,0-14.5,6.5-14.5,14.4
				C416.9,76.2,423.4,82.6,431.4,82.6z"/>
			<path class="st1" d="M158.4,149.3c29.7,0,53.8-23.5,53.8-52.5c0-28.9-24.1-52.5-53.8-52.5c-29.7,0-53.8,23.5-53.8,52.5
				C104.6,125.8,128.7,149.3,158.4,149.3z"/>
			<path class="st1" d="M100.8,454.5h52.9V344.8c0-2.6,2.1-4.7,4.7-4.7c2.6,0,4.7,2.1,4.7,4.7v109.7H216V301.8H100.8V454.5z"/>
			<path class="st1" d="M373.9,73c2.6,0,4.7-2.1,4.7-4.7c0-2.6-2.1-4.7-4.7-4.7H326c-2.6,0-4.7,2.1-4.7,4.7v119.3h-33.6
				c-2.6,0-4.7,2.1-4.7,4.7s2.1,4.7,4.7,4.7h33.6V321h-33.6c-2.6,0-4.7,2.1-4.7,4.7s2.1,4.7,4.7,4.7h33.6v119.3
				c0,2.6,2.1,4.7,4.7,4.7h38.3c2.6,0,4.7-2.1,4.7-4.7s-2.1-4.7-4.7-4.7h-33.6V330.4h43.2c2.6,0,4.7-2.1,4.7-4.7s-2.1-4.7-4.7-4.7
				h-43.2V196.9h43.2c2.6,0,4.7-2.1,4.7-4.7s-2.1-4.7-4.7-4.7h-43.2V73H373.9z"/>
		</g>
	</g>
</g>
<g id="Слой_2">
</g>
</svg>
